<svg width="1280" height="720" viewBox="0 0 1280 720" xmlns="http://www.w3.org/2000/svg"><rect x="0" y="0" width="1280" height="720" fill="#FFFFFF"/><text x="900" y="480" font-family="'JetBrains Mono', Consolas, monospace" font-size="240" font-weight="900" fill="#262626" opacity="0.035" text-anchor="middle">104</text><text x="40" y="24" text-anchor="start" font-family="Inter, 'PingFang SC', 'Microsoft YaHei', sans-serif" font-size="11" fill="#9B9B9B" letter-spacing="1">D 层 · 组件冒烟</text><rect x="1188" y="16" width="9" height="9" rx="2" fill="#336EE8"/><text x="1240" y="24" text-anchor="end" font-family="Inter, 'PingFang SC', 'Microsoft YaHei', sans-serif" font-size="12" fill="#262626" font-weight="600">Aham</text><line x1="40" y1="32" x2="1240" y2="32" stroke="#E7E7E7" stroke-width="1"/><text x="40" y="78" text-anchor="start" font-family="Inter, 'PingFang SC', 'Microsoft YaHei', sans-serif" font-size="30" fill="#262626" font-weight="700">咨询密集层冒烟：12 个异形/标注 API 一页跑通、原生转换</text><line x1="40" y1="94" x2="1240" y2="94" stroke="#E7E7E7" stroke-width="1"/><polygon points="56.0,112 206.57999999999998,112 225.5,155.0 206.57999999999998,198 56.0,198 74.92,155.0" fill="#FFFFFF" stroke="#262626" stroke-width="2.5"/><text x="145.48" y="136.08" text-anchor="middle" font-family="Inter, 'PingFang SC', 'Microsoft YaHei', sans-serif" font-size="13" fill="#262626" font-weight="700">小组赛</text><text x="145.48" y="168.76" text-anchor="middle" font-family="'JetBrains Mono', Consolas, monospace" font-size="25.8" fill="#336EE8" font-weight="700">72</text><text x="145.48" y="187.68" text-anchor="middle" font-family="Inter, 'PingFang SC', 'Microsoft YaHei', sans-serif" font-size="10" fill="#262626">12 组</text><polygon points="229.5,112 380.08,112 399.0,155.0 380.08,198 229.5,198 248.42000000000002,155.0" fill="#262626"/><text x="318.98" y="136.08" text-anchor="middle" font-family="Inter, 'PingFang SC', 'Microsoft YaHei', sans-serif" font-size="13" fill="#FFFFFF" font-weight="700">32 强</text><text x="318.98" y="168.76" text-anchor="middle" font-family="'JetBrains Mono', Consolas, monospace" font-size="25.8" fill="#FFFFFF" font-weight="700">16</text><polygon points="403.0,112 553.58,112 572.5,155.0 553.58,198 403.0,198 421.92,155.0" fill="#262626"/><text x="492.48" y="136.08" text-anchor="middle" font-family="Inter, 'PingFang SC', 'Microsoft YaHei', sans-serif" font-size="13" fill="#FFFFFF" font-weight="700">16 强</text><text x="492.48" y="168.76" text-anchor="middle" font-family="'JetBrains Mono', Consolas, monospace" font-size="25.8" fill="#FFFFFF" font-weight="700">8</text><polygon points="576.5,112 727.08,112 746.0,155.0 727.08,198 576.5,198 595.42,155.0" fill="#262626"/><text x="665.98" y="136.08" text-anchor="middle" font-family="Inter, 'PingFang SC', 'Microsoft YaHei', sans-serif" font-size="13" fill="#FFFFFF" font-weight="700">决赛</text><text x="665.98" y="168.76" text-anchor="middle" font-family="'JetBrains Mono', Consolas, monospace" font-size="25.8" fill="#FFFFFF" font-weight="700">2</text><text x="665.98" y="187.68" text-anchor="middle" font-family="Inter, 'PingFang SC', 'Microsoft YaHei', sans-serif" font-size="10" fill="#FFFFFF">含季军战</text><text x="906" y="128" text-anchor="middle" font-family="Inter, 'PingFang SC', 'Microsoft YaHei', sans-serif" font-size="9.5" fill="#9B9B9B" font-weight="700">A</text><text x="930" y="128" text-anchor="middle" font-family="Inter, 'PingFang SC', 'Microsoft YaHei', sans-serif" font-size="9.5" fill="#9B9B9B" font-weight="700">B</text><text x="954" y="128" text-anchor="middle" font-family="Inter, 'PingFang SC', 'Microsoft YaHei', sans-serif" font-size="9.5" fill="#9B9B9B" font-weight="700">C</text><text x="978" y="128" text-anchor="middle" font-family="Inter, 'PingFang SC', 'Microsoft YaHei', sans-serif" font-size="9.5" fill="#9B9B9B" font-weight="700">D</text><text x="1002" y="128" text-anchor="middle" font-family="Inter, 'PingFang SC', 'Microsoft YaHei', sans-serif" font-size="9.5" fill="#9B9B9B" font-weight="700">E</text><text x="1026" y="128" text-anchor="middle" font-family="Inter, 'PingFang SC', 'Microsoft YaHei', sans-serif" font-size="9.5" fill="#9B9B9B" font-weight="700">F</text><text x="1050" y="128" text-anchor="middle" font-family="Inter, 'PingFang SC', 'Microsoft YaHei', sans-serif" font-size="9.5" fill="#9B9B9B" font-weight="700">G</text><text x="1074" y="128" text-anchor="middle" font-family="Inter, 'PingFang SC', 'Microsoft YaHei', sans-serif" font-size="9.5" fill="#9B9B9B" font-weight="700">H</text><text x="888" y="146" text-anchor="end" font-family="Inter, 'PingFang SC', 'Microsoft YaHei', sans-serif" font-size="10.5" fill="#6E6E6E">第1名</text><circle cx="906" cy="142" r="7" fill="#9B9B9B"/><circle cx="930" cy="142" r="7" fill="#9B9B9B"/><circle cx="954" cy="142" r="7" fill="#9B9B9B"/><circle cx="978" cy="142" r="7" fill="#9B9B9B"/><circle cx="1002" cy="142" r="7" fill="#9B9B9B"/><circle cx="1026" cy="142" r="7" fill="#9B9B9B"/><circle cx="1050" cy="142" r="7" fill="#9B9B9B"/><circle cx="1074" cy="142" r="7" fill="#9B9B9B"/><text x="888" y="170" text-anchor="end" font-family="Inter, 'PingFang SC', 'Microsoft YaHei', sans-serif" font-size="10.5" fill="#6E6E6E">第2名</text><circle cx="906" cy="166" r="7" fill="#9B9B9B"/><circle cx="930" cy="166" r="7" fill="#9B9B9B"/><circle cx="954" cy="166" r="7" fill="#9B9B9B"/><circle cx="978" cy="166" r="7" fill="#9B9B9B"/><circle cx="1002" cy="166" r="7" fill="#9B9B9B"/><circle cx="1026" cy="166" r="7" fill="#9B9B9B"/><circle cx="1050" cy="166" r="7" fill="#9B9B9B"/><circle cx="1074" cy="166" r="7" fill="#9B9B9B"/><text x="888" y="194" text-anchor="end" font-family="Inter, 'PingFang SC', 'Microsoft YaHei', sans-serif" font-size="10.5" fill="#6E6E6E">第3名</text><circle cx="906" cy="190" r="7" fill="#FFFFFF" stroke="#6E6E6E" stroke-width="2.2" stroke-dasharray="3 2"/><circle cx="930" cy="190" r="7" fill="#FFFFFF" stroke="#6E6E6E" stroke-width="2.2" stroke-dasharray="3 2"/><circle cx="954" cy="190" r="7" fill="#FFFFFF" stroke="#6E6E6E" stroke-width="2.2" stroke-dasharray="3 2"/><circle cx="978" cy="190" r="7" fill="#FFFFFF" stroke="#6E6E6E" stroke-width="2.2" stroke-dasharray="3 2"/><circle cx="1002" cy="190" r="7" fill="#FFFFFF" stroke="#6E6E6E" stroke-width="2.2" stroke-dasharray="3 2"/><circle cx="1026" cy="190" r="7" fill="#FFFFFF" stroke="#6E6E6E" stroke-width="2.2" stroke-dasharray="3 2"/><circle cx="1050" cy="190" r="7" fill="#FFFFFF" stroke="#6E6E6E" stroke-width="2.2" stroke-dasharray="3 2"/><circle cx="1074" cy="190" r="7" fill="#FFFFFF" stroke="#6E6E6E" stroke-width="2.2" stroke-dasharray="3 2"/><text x="888" y="218" text-anchor="end" font-family="Inter, 'PingFang SC', 'Microsoft YaHei', sans-serif" font-size="10.5" fill="#6E6E6E">第4名</text><circle cx="906" cy="214" r="7" fill="#C4C4C4"/><circle cx="930" cy="214" r="7" fill="#C4C4C4"/><circle cx="954" cy="214" r="7" fill="#C4C4C4"/><circle cx="978" cy="214" r="7" fill="#C4C4C4"/><circle cx="1002" cy="214" r="7" fill="#C4C4C4"/><circle cx="1026" cy="214" r="7" fill="#C4C4C4"/><circle cx="1050" cy="214" r="7" fill="#C4C4C4"/><circle cx="1074" cy="214" r="7" fill="#C4C4C4"/><ellipse cx="990.0" cy="190" rx="108" ry="13" fill="none" stroke="#262626" stroke-width="2"/><line x1="1078" y1="186" x2="1110.081577678783" y2="165.73795093971586" stroke="#6E6E6E" stroke-width="1.4"/><polygon points="1116.0,162.0 1112.1,167.8 1109.1,163.0" fill="#6E6E6E"/><text x="1122" y="160" text-anchor="start" font-family="Inter, 'PingFang SC', 'Microsoft YaHei', sans-serif" font-size="10.5" fill="#336EE8" font-weight="700">取最好 8 个</text><text x="56" y="274.0" text-anchor="start" font-family="Inter, 'PingFang SC', 'Microsoft YaHei', sans-serif" font-size="13.5" fill="#262626" font-weight="700">参赛球队</text><line x1="256.1333333333333" y1="269.0" x2="436" y2="269.0" stroke="#E7E7E7" stroke-width="3"/><line x1="256.1333333333333" y1="269.0" x2="424" y2="269.0" stroke="#9B9B9B" stroke-width="3"/><polygon points="426.0,269.0 417.8,272.7 417.8,265.3" fill="#9B9B9B"/><circle cx="256.1333333333333" cy="269.0" r="8" fill="none" stroke="#C8C8C8" stroke-width="3"/><text x="256.1333333333333" y="253.0" text-anchor="middle" font-family="'JetBrains Mono', Consolas, monospace" font-size="13" fill="#6E6E6E" font-weight="700">32</text><circle cx="436" cy="269.0" r="9" fill="#262626"/><text x="436" y="251.0" text-anchor="middle" font-family="'JetBrains Mono', Consolas, monospace" font-size="15" fill="#262626" font-weight="700">48</text><text x="346.06666666666666" y="260.0" text-anchor="middle" font-family="Inter, 'PingFang SC', 'Microsoft YaHei', sans-serif" font-size="10.5" fill="#6E6E6E" font-weight="700">+50%</text><text x="56" y="332.0" text-anchor="start" font-family="Inter, 'PingFang SC', 'Microsoft YaHei', sans-serif" font-size="13.5" fill="#262626" font-weight="700">比赛场次</text><line x1="248.12307692307695" y1="327.0" x2="436" y2="327.0" stroke="#E7E7E7" stroke-width="3"/><line x1="248.12307692307695" y1="327.0" x2="424" y2="327.0" stroke="#9B9B9B" stroke-width="3"/><polygon points="426.0,327.0 417.8,330.7 417.8,323.3" fill="#9B9B9B"/><circle cx="248.12307692307695" cy="327.0" r="8" fill="none" stroke="#C8C8C8" stroke-width="3"/><text x="248.12307692307695" y="311.0" text-anchor="middle" font-family="'JetBrains Mono', Consolas, monospace" font-size="13" fill="#6E6E6E" font-weight="700">64</text><circle cx="436" cy="327.0" r="9" fill="#262626"/><text x="436" y="309.0" text-anchor="middle" font-family="'JetBrains Mono', Consolas, monospace" font-size="15" fill="#262626" font-weight="700">104</text><text x="342.0615384615385" y="318.0" text-anchor="middle" font-family="Inter, 'PingFang SC', 'Microsoft YaHei', sans-serif" font-size="10.5" fill="#6E6E6E" font-weight="700">+63%</text><rect x="790" y="253.28" width="140" height="109.44" rx="8" fill="#262626"/><text x="860.0" y="304.0" text-anchor="middle" font-family="'JetBrains Mono', Consolas, monospace" font-size="34" fill="#FFFFFF" font-weight="700">33</text><text x="860.0" y="330.0" text-anchor="middle" font-family="Inter, 'PingFang SC', 'Microsoft YaHei', sans-serif" font-size="11.5" fill="#FFFFFF">三洲小计</text><rect x="600" y="232" width="110" height="65.93939393939394" rx="2" fill="#9B9B9B"/><text x="590" y="268.969696969697" text-anchor="end" font-family="Inter, 'PingFang SC', 'Microsoft YaHei', sans-serif" font-size="11.5" fill="#262626" font-weight="700">欧洲</text><text x="655.0" y="268.969696969697" text-anchor="middle" font-family="'JetBrains Mono', Consolas, monospace" font-size="11.5" fill="#FFFFFF" font-weight="700">16</text><polygon points="710,232 790,259.28 790,306.52363636363634 710,297.93939393939394" fill="#9B9B9B" opacity="0.28"/><rect x="600" y="305.93939393939394" width="110" height="37.09090909090909" rx="2" fill="#336EE8"/><text x="590" y="328.4848484848485" text-anchor="end" font-family="Inter, 'PingFang SC', 'Microsoft YaHei', sans-serif" font-size="11.5" fill="#262626" font-weight="700">非洲</text><text x="655.0" y="328.4848484848485" text-anchor="middle" font-family="'JetBrains Mono', Consolas, monospace" font-size="11.5" fill="#FFFFFF" font-weight="700">9</text><polygon points="710,305.93939393939394 790,306.52363636363634 790,333.0981818181818 710,343.030303030303" fill="#336EE8" opacity="0.28"/><rect x="600" y="351.030303030303" width="110" height="32.96969696969697" rx="2" fill="#9B9B9B"/><text x="590" y="371.5151515151515" text-anchor="end" font-family="Inter, 'PingFang SC', 'Microsoft YaHei', sans-serif" font-size="11.5" fill="#262626" font-weight="700">亚洲</text><text x="655.0" y="371.5151515151515" text-anchor="middle" font-family="'JetBrains Mono', Consolas, monospace" font-size="11.5" fill="#FFFFFF" font-weight="700">8</text><polygon points="710,351.030303030303 790,333.0981818181818 790,356.71999999999997 710,384.0" fill="#9B9B9B" opacity="0.28"/><rect x="56" y="420" width="120" height="72" rx="6" fill="#262626"/><text x="116.0" y="454.0" text-anchor="middle" font-family="'JetBrains Mono', Consolas, monospace" font-size="30.24" fill="#FFFFFF" font-weight="700">104</text><text x="116.0" y="477.6" text-anchor="middle" font-family="Inter, 'PingFang SC', 'Microsoft YaHei', sans-serif" font-size="12" fill="#FFFFFF" font-weight="700">总场次</text><line x1="176" y1="456" x2="204.0" y2="456" stroke="#262626" stroke-width="1.6"/><line x1="204.0" y1="456" x2="204.0" y2="426" stroke="#262626" stroke-width="1.6"/><line x1="204.0" y1="426" x2="232" y2="426" stroke="#262626" stroke-width="1.6"/><line x1="176" y1="456" x2="204.0" y2="456" stroke="#262626" stroke-width="1.6"/><line x1="204.0" y1="456" x2="204.0" y2="500" stroke="#262626" stroke-width="1.6"/><line x1="204.0" y1="500" x2="232" y2="500" stroke="#262626" stroke-width="1.6"/><rect x="232" y="398" width="118" height="56" rx="6" fill="#FFFFFF" stroke="#262626" stroke-width="1.6"/><text x="291.0" y="424.0" text-anchor="middle" font-family="'JetBrains Mono', Consolas, monospace" font-size="20.16" fill="#262626" font-weight="700">72</text><text x="291.0" y="442.8" text-anchor="middle" font-family="Inter, 'PingFang SC', 'Microsoft YaHei', sans-serif" font-size="11.5" fill="#6E6E6E" font-weight="700">小组赛</text><rect x="232" y="472" width="118" height="56" rx="6" fill="#FFFFFF" stroke="#262626" stroke-width="1.6"/><text x="291.0" y="498.0" text-anchor="middle" font-family="'JetBrains Mono', Consolas, monospace" font-size="20.16" fill="#262626" font-weight="700">32</text><text x="291.0" y="516.8" text-anchor="middle" font-family="Inter, 'PingFang SC', 'Microsoft YaHei', sans-serif" font-size="11.5" fill="#6E6E6E" font-weight="700">淘汰赛</text><line x1="350" y1="426" x2="385.0" y2="426.0" stroke="#9B9B9B" stroke-width="1.4"/><polygon points="392.0,426.0 385.6,428.9 385.6,423.1" fill="#9B9B9B"/><line x1="350" y1="500" x2="385.0" y2="500.0" stroke="#9B9B9B" stroke-width="1.4"/><polygon points="392.0,500.0 385.6,502.9 385.6,497.1" fill="#9B9B9B"/><rect x="392" y="398" width="176" height="56" rx="6" fill="#FFFFFF" stroke="#E7E7E7" stroke-width="1.4"/><text x="480.0" y="430.0" text-anchor="middle" font-family="Inter, 'PingFang SC', 'Microsoft YaHei', sans-serif" font-size="12" fill="#6E6E6E">12 组 × 6 场</text><rect x="392" y="472" width="176" height="56" rx="6" fill="#FFFFFF" stroke="#E7E7E7" stroke-width="1.4"/><text x="480.0" y="504.0" text-anchor="middle" font-family="Inter, 'PingFang SC', 'Microsoft YaHei', sans-serif" font-size="12" fill="#6E6E6E">31 + 1 季军战</text><circle cx="660" cy="470" r="16" fill="#FFFFFF" stroke="#336EE8" stroke-width="2.6"/><text x="660" y="475" text-anchor="middle" font-family="'JetBrains Mono', Consolas, monospace" font-size="13" fill="#262626" font-weight="700">48</text><line x1="680" y1="470" x2="724" y2="470" stroke="#9B9B9B" stroke-width="2.2"/><polygon points="726.0,470.0 718.7,473.3 718.7,466.7" fill="#9B9B9B"/><text x="706.0" y="458" text-anchor="middle" font-family="'JetBrains Mono', Consolas, monospace" font-size="10" fill="#6E6E6E" font-weight="700">-16</text><circle cx="752" cy="470" r="16" fill="#262626"/><text x="752" y="475" text-anchor="middle" font-family="'JetBrains Mono', Consolas, monospace" font-size="13" fill="#FFFFFF" font-weight="700">32</text><line x1="772" y1="470" x2="816" y2="470" stroke="#9B9B9B" stroke-width="2.2"/><polygon points="818.0,470.0 810.7,473.3 810.7,466.7" fill="#9B9B9B"/><text x="798.0" y="458" text-anchor="middle" font-family="'JetBrains Mono', Consolas, monospace" font-size="10" fill="#6E6E6E" font-weight="700">-16</text><circle cx="844" cy="470" r="16" fill="#262626"/><text x="844" y="475" text-anchor="middle" font-family="'JetBrains Mono', Consolas, monospace" font-size="13" fill="#FFFFFF" font-weight="700">16</text><line x1="864" y1="470" x2="908" y2="470" stroke="#9B9B9B" stroke-width="2.2"/><polygon points="910.0,470.0 902.7,473.3 902.7,466.7" fill="#9B9B9B"/><text x="890.0" y="458" text-anchor="middle" font-family="'JetBrains Mono', Consolas, monospace" font-size="10" fill="#6E6E6E" font-weight="700">-8</text><circle cx="936" cy="470" r="16" fill="#262626"/><text x="936" y="475" text-anchor="middle" font-family="'JetBrains Mono', Consolas, monospace" font-size="13" fill="#FFFFFF" font-weight="700">8</text><rect x="970" y="453" width="104" height="34" rx="17" fill="#262626"/><text x="1022" y="475" text-anchor="middle" font-family="Inter, 'PingFang SC', 'Microsoft YaHei', sans-serif" font-size="12.5" fill="#FFFFFF" font-weight="700">冠军</text><rect x="660" y="560" width="300" height="16" fill="#9B9B9B"/><rect x="960" y="560" width="116" height="16" fill="#C8C8C8"/><rect x="1076" y="560" width="44" height="16" fill="#DDDDDD"/><rect x="1120" y="560" width="30" height="16" fill="#EEEEEE"/><text x="810" y="572" text-anchor="middle" font-family="Inter, 'PingFang SC', 'Microsoft YaHei', sans-serif" font-size="10.5" fill="#FFFFFF" font-weight="700">主体 62</text><text x="1018" y="572" text-anchor="middle" font-family="Inter, 'PingFang SC', 'Microsoft YaHei', sans-serif" font-size="10" fill="#262626" font-weight="700">次 23</text><line x1="1098" y1="559" x2="1098" y2="555" stroke="#C4C4C4" stroke-width="1"/><text x="1098" y="552" text-anchor="middle" font-family="Inter, 'PingFang SC', 'Microsoft YaHei', sans-serif" font-size="9.5" fill="#6E6E6E" font-weight="700">小 9</text><line x1="1135" y1="559" x2="1135" y2="541" stroke="#C4C4C4" stroke-width="1"/><text x="1135" y="538" text-anchor="middle" font-family="Inter, 'PingFang SC', 'Microsoft YaHei', sans-serif" font-size="9.5" fill="#6E6E6E" font-weight="700">微 6</text><rect x="56" y="612" width="1104" height="42" rx="6" fill="#F3F3F3"/><text x="78" y="638.0" text-anchor="start" font-family="Inter, 'PingFang SC', 'Microsoft YaHei', sans-serif" font-size="12.5" fill="#262626" font-weight="700">So What</text><text x="152" y="638.0" text-anchor="start" font-family="Inter, 'PingFang SC', 'Microsoft YaHei', sans-serif" font-size="13" fill="#262626">异形 + 标注层替代方卡阵；本页组件全部走原生 svg_to_pptx 转换。</text><line x1="1100.3" y1="627.455" x2="1108" y2="634" stroke="#262626" stroke-width="2.4"/><line x1="1108" y1="634" x2="1122.3" y2="617.555" stroke="#262626" stroke-width="2.4"/><line x1="40" y1="690" x2="1240" y2="690" stroke="#E7E7E7" stroke-width="1"/><text x="40" y="709" text-anchor="start" font-family="Inter, 'PingFang SC', 'Microsoft YaHei', sans-serif" font-size="11" fill="#9B9B9B">来源：consulting.py v2.5 冒烟页 · 2026-07-02</text><text x="1240" y="709" text-anchor="end" font-family="'JetBrains Mono', Consolas, monospace" font-size="11" fill="#9B9B9B">1 / 1</text></svg>