<svg width="1280" height="720" viewBox="0 0 1280 720" xmlns="http://www.w3.org/2000/svg"><rect width="1280" height="720" fill="#FFFFFF"/><text x="40" y="24" text-anchor="start" font-family="Inter, 'PingFang SC', 'Microsoft YaHei', sans-serif" font-size="11" fill="#9B9B9B" letter-spacing="1">02 赛制</text><rect x="1188" y="16" width="9" height="9" rx="2" fill="#336EE8"/><text x="1240" y="24" text-anchor="end" font-family="Inter, 'PingFang SC', 'Microsoft YaHei', sans-serif" font-size="12" fill="#262626" font-weight="600">Aham</text><line x1="40" y1="32" x2="1240" y2="32" stroke="#E7E7E7" stroke-width="1"/><text x="40" y="74" text-anchor="start" font-family="Inter, 'PingFang SC', 'Microsoft YaHei', sans-serif" font-size="26" fill="#262626" font-weight="700">104 场分七段：72 场小组赛只是前 17 天</text><line x1="40" y1="90" x2="1240" y2="90" stroke="#E7E7E7" stroke-width="1"/><text x="640" y="470" font-family="'JetBrains Mono', Consolas, monospace" font-size="300" font-weight="900" fill="#262626" opacity="0.035" text-anchor="middle">104</text><text x="60" y="128" text-anchor="start" font-family="Inter, 'PingFang SC', 'Microsoft YaHei', sans-serif" font-size="11.5" fill="#9B9B9B">七段赛程 · 段内数字＝场次 · 白底段＝当前阶段（32 强轮）</text><polygon points="40.0,168 175.44,168 208.0,242.0 175.44,316 40.0,316 72.56,242.0" fill="#262626"/><text x="132.14" y="209.44" text-anchor="middle" font-family="Inter, 'PingFang SC', 'Microsoft YaHei', sans-serif" font-size="13" fill="#FFFFFF" font-weight="700">小组赛</text><text x="132.14" y="265.68" text-anchor="middle" font-family="'JetBrains Mono', Consolas, monospace" font-size="44.4" fill="#FFFFFF" font-weight="700">72</text><text x="132.14" y="298.24" text-anchor="middle" font-family="Inter, 'PingFang SC', 'Microsoft YaHei', sans-serif" font-size="10" fill="#FFFFFF">06-11 - 06-27</text><polygon points="212.0,168 347.44,168 380.0,242.0 347.44,316 212.0,316 244.56,242.0" fill="#FFFFFF" stroke="#262626" stroke-width="2.5"/><text x="304.14" y="209.44" text-anchor="middle" font-family="Inter, 'PingFang SC', 'Microsoft YaHei', sans-serif" font-size="13" fill="#262626" font-weight="700">32 强</text><text x="304.14" y="265.68" text-anchor="middle" font-family="'JetBrains Mono', Consolas, monospace" font-size="44.4" fill="#336EE8" font-weight="700">16</text><text x="304.14" y="298.24" text-anchor="middle" font-family="Inter, 'PingFang SC', 'Microsoft YaHei', sans-serif" font-size="10" fill="#262626">06-28 - 07-03</text><polygon points="384.0,168 519.44,168 552.0,242.0 519.44,316 384.0,316 416.56,242.0" fill="#262626"/><text x="476.14" y="209.44" text-anchor="middle" font-family="Inter, 'PingFang SC', 'Microsoft YaHei', sans-serif" font-size="13" fill="#FFFFFF" font-weight="700">16 强</text><text x="476.14" y="265.68" text-anchor="middle" font-family="'JetBrains Mono', Consolas, monospace" font-size="44.4" fill="#FFFFFF" font-weight="700">8</text><text x="476.14" y="298.24" text-anchor="middle" font-family="Inter, 'PingFang SC', 'Microsoft YaHei', sans-serif" font-size="10" fill="#FFFFFF">07-04 - 07-07</text><polygon points="556.0,168 691.44,168 724.0,242.0 691.44,316 556.0,316 588.56,242.0" fill="#262626"/><text x="648.14" y="209.44" text-anchor="middle" font-family="Inter, 'PingFang SC', 'Microsoft YaHei', sans-serif" font-size="13" fill="#FFFFFF" font-weight="700">1/4 决赛</text><text x="648.14" y="265.68" text-anchor="middle" font-family="'JetBrains Mono', Consolas, monospace" font-size="44.4" fill="#FFFFFF" font-weight="700">4</text><text x="648.14" y="298.24" text-anchor="middle" font-family="Inter, 'PingFang SC', 'Microsoft YaHei', sans-serif" font-size="10" fill="#FFFFFF">07-09 - 07-11</text><polygon points="728.0,168 863.44,168 896.0,242.0 863.44,316 728.0,316 760.56,242.0" fill="#262626"/><text x="820.14" y="209.44" text-anchor="middle" font-family="Inter, 'PingFang SC', 'Microsoft YaHei', sans-serif" font-size="13" fill="#FFFFFF" font-weight="700">半决赛</text><text x="820.14" y="265.68" text-anchor="middle" font-family="'JetBrains Mono', Consolas, monospace" font-size="44.4" fill="#FFFFFF" font-weight="700">2</text><text x="820.14" y="298.24" text-anchor="middle" font-family="Inter, 'PingFang SC', 'Microsoft YaHei', sans-serif" font-size="10" fill="#FFFFFF">07-14 - 07-15</text><polygon points="900.0,168 1035.44,168 1068.0,242.0 1035.44,316 900.0,316 932.56,242.0" fill="#262626"/><text x="992.14" y="209.44" text-anchor="middle" font-family="Inter, 'PingFang SC', 'Microsoft YaHei', sans-serif" font-size="13" fill="#FFFFFF" font-weight="700">季军战</text><text x="992.14" y="265.68" text-anchor="middle" font-family="'JetBrains Mono', Consolas, monospace" font-size="44.4" fill="#FFFFFF" font-weight="700">1</text><text x="992.14" y="298.24" text-anchor="middle" font-family="Inter, 'PingFang SC', 'Microsoft YaHei', sans-serif" font-size="10" fill="#FFFFFF">07-18</text><polygon points="1072.0,168 1207.44,168 1240.0,242.0 1207.44,316 1072.0,316 1104.56,242.0" fill="#262626"/><text x="1164.14" y="209.44" text-anchor="middle" font-family="Inter, 'PingFang SC', 'Microsoft YaHei', sans-serif" font-size="13" fill="#FFFFFF" font-weight="700">决赛</text><text x="1164.14" y="265.68" text-anchor="middle" font-family="'JetBrains Mono', Consolas, monospace" font-size="44.4" fill="#FFFFFF" font-weight="700">1</text><text x="1164.14" y="298.24" text-anchor="middle" font-family="Inter, 'PingFang SC', 'Microsoft YaHei', sans-serif" font-size="10" fill="#FFFFFF">07-19</text><text x="40" y="382" text-anchor="start" font-family="Inter, 'PingFang SC', 'Microsoft YaHei', sans-serif" font-size="12.5" fill="#262626" font-weight="700">104 场构成 · 按阶段</text><rect x="40.0" y="396" width="830.8" height="26" rx="2" fill="#9B9B9B"/><text x="455.38461538461536" y="414" text-anchor="middle" font-family="Inter, 'PingFang SC', 'Microsoft YaHei', sans-serif" font-size="11.5" fill="#FFFFFF" font-weight="700">小组赛 72</text><rect x="870.8" y="396" width="184.6" height="26" rx="2" fill="#C8C8C8"/><text x="963.076923076923" y="414" text-anchor="middle" font-family="Inter, 'PingFang SC', 'Microsoft YaHei', sans-serif" font-size="11.5" fill="#FFFFFF" font-weight="700">32强 16</text><rect x="1055.4" y="396" width="92.3" height="26" rx="2" fill="#9B9B9B"/><text x="1101.5384615384614" y="414" text-anchor="middle" font-family="Inter, 'PingFang SC', 'Microsoft YaHei', sans-serif" font-size="11.5" fill="#FFFFFF" font-weight="700">16强 8</text><rect x="1147.7" y="396" width="46.2" height="26" rx="2" fill="#C8C8C8"/><rect x="1193.8" y="396" width="23.1" height="26" rx="2" fill="#9B9B9B"/><rect x="1216.9" y="396" width="11.5" height="26" rx="2" fill="#C8C8C8"/><rect x="1228.5" y="396" width="11.5" height="26" rx="2" fill="#262626"/><line x1="1193.8461538461538" y1="395" x2="1193.8461538461538" y2="391" stroke="#C4C4C4" stroke-width="1"/><text x="1193.8461538461538" y="388" text-anchor="middle" font-family="Inter, 'PingFang SC', 'Microsoft YaHei', sans-serif" font-size="9.5" fill="#6E6E6E" font-weight="700">决赛轮 8</text><text x="40" y="442" text-anchor="start" font-family="'JetBrains Mono', Consolas, monospace" font-size="13" fill="#6E6E6E">72+16+8+4+2+1+1 = 104</text><text x="460" y="442" text-anchor="start" font-family="Inter, 'PingFang SC', 'Microsoft YaHei', sans-serif" font-size="11.5" fill="#9B9B9B">小组赛占 69.2%（计算值）</text><text x="40" y="486" text-anchor="start" font-family="Inter, 'PingFang SC', 'Microsoft YaHei', sans-serif" font-size="12.5" fill="#262626" font-weight="700">赛程密度（场/天，计算值）</text><text x="40" y="520" text-anchor="start" font-family="Inter, 'PingFang SC', 'Microsoft YaHei', sans-serif" font-size="11.5" fill="#6E6E6E">小组赛 17 天</text><rect x="150" y="506" width="320" height="18" rx="2" fill="#9B9B9B"/><text x="478" y="520" text-anchor="start" font-family="'JetBrains Mono', Consolas, monospace" font-size="12" fill="#262626" font-weight="700">4.2</text><text x="40" y="554" text-anchor="start" font-family="Inter, 'PingFang SC', 'Microsoft YaHei', sans-serif" font-size="11.5" fill="#6E6E6E">淘汰赛 22 天</text><rect x="150" y="540" width="114" height="18" rx="2" fill="#C8C8C8"/><text x="272" y="554" text-anchor="start" font-family="'JetBrains Mono', Consolas, monospace" font-size="12" fill="#262626" font-weight="700">1.5</text><rect x="820" y="486" width="420" height="72" rx="12" fill="#F3F3F3"/><text x="842" y="514" text-anchor="start" font-family="Inter, 'PingFang SC', 'Microsoft YaHei', sans-serif" font-size="13.5" fill="#262626" font-weight="700">今天 2026-07-02 · 32 强轮进行中</text><text x="842" y="540" text-anchor="start" font-family="Inter, 'PingFang SC', 'Microsoft YaHei', sans-serif" font-size="12.5" fill="#6E6E6E">本轮 16 场（06-28 - 07-03）决出 16 强</text><line x1="300" y1="322" x2="809.3826617432828" y2="497.7172747874115" stroke="#6E6E6E" stroke-width="1.4" stroke-dasharray="4 3"/><polygon points="816.0,500.0 809.0,500.6 810.9,495.2" fill="#6E6E6E"/><rect x="40" y="642" width="1200" height="36" rx="6" fill="#F3F3F3"/><text x="62" y="665.0" text-anchor="start" font-family="Inter, 'PingFang SC', 'Microsoft YaHei', sans-serif" font-size="12.5" fill="#262626" font-weight="700">So-What</text><text x="136" y="665.0" text-anchor="start" font-family="Inter, 'PingFang SC', 'Microsoft YaHei', sans-serif" font-size="13" fill="#262626">小组赛管量、淘汰赛管命——真正决定冠军的 32 场，全部压在 06-28 到 07-19</text><line x1="40" y1="690" x2="1240" y2="690" stroke="#E7E7E7" stroke-width="1"/><text x="40" y="709" text-anchor="start" font-family="Inter, 'PingFang SC', 'Microsoft YaHei', sans-serif" font-size="11" fill="#9B9B9B">来源：FIFA.com（赛制公告）· ESPN / Olympics.com（赛程）</text><text x="1240" y="709" text-anchor="end" font-family="'JetBrains Mono', Consolas, monospace" font-size="11" fill="#9B9B9B">4 / 10</text></svg>