<svg width="1280" height="720" viewBox="0 0 1280 720" xmlns="http://www.w3.org/2000/svg"><rect width="1280" height="720" fill="#FFFFFF"/><text x="40" y="24" text-anchor="start" font-family="Inter, 'PingFang SC', 'Microsoft YaHei', sans-serif" font-size="11" fill="#9B9B9B" letter-spacing="1">03 热度与地理</text><rect x="1188" y="16" width="9" height="9" rx="2" fill="#336EE8"/><text x="1240" y="24" text-anchor="end" font-family="Inter, 'PingFang SC', 'Microsoft YaHei', sans-serif" font-size="12" fill="#262626" font-weight="600">Aham</text><line x1="40" y1="32" x2="1240" y2="32" stroke="#E7E7E7" stroke-width="1"/><text x="40" y="74" text-anchor="start" font-family="Inter, 'PingFang SC', 'Microsoft YaHei', sans-serif" font-size="26" fill="#262626" font-weight="700">78 场在美国：1/4 决赛起再未离开美国</text><line x1="40" y1="90" x2="1240" y2="90" stroke="#E7E7E7" stroke-width="1"/><text x="1060" y="600" font-family="'JetBrains Mono', Consolas, monospace" font-size="200" font-weight="900" fill="#262626" opacity="0.035" text-anchor="middle">75%</text><text x="60" y="128" text-anchor="start" font-family="Inter, 'PingFang SC', 'Microsoft YaHei', sans-serif" font-size="11.5" fill="#9B9B9B">三级分解：总场次 → 国家 → 关键事实；框下＝场次占比（计算值）</text><rect x="60" y="330" width="190" height="110" rx="6" fill="#262626"/><text x="155.0" y="383.0" text-anchor="middle" font-family="'JetBrains Mono', Consolas, monospace" font-size="46.199999999999996" fill="#FFFFFF" font-weight="700">104</text><text x="155.0" y="418.0" text-anchor="middle" font-family="Inter, 'PingFang SC', 'Microsoft YaHei', sans-serif" font-size="12" fill="#FFFFFF" font-weight="700">总场次 · 16 城</text><rect x="340" y="150" width="200" height="86" rx="6" fill="#FFFFFF" stroke="#262626" stroke-width="1.6"/><text x="440.0" y="191.0" text-anchor="middle" font-family="'JetBrains Mono', Consolas, monospace" font-size="30.959999999999997" fill="#262626" font-weight="700">78</text><text x="440.0" y="218.8" text-anchor="middle" font-family="Inter, 'PingFang SC', 'Microsoft YaHei', sans-serif" font-size="11.5" fill="#6E6E6E" font-weight="700">美国 · 11 城</text><line x1="250" y1="385" x2="293.0" y2="385" stroke="#262626" stroke-width="1.6"/><line x1="293.0" y1="385" x2="293.0" y2="193" stroke="#262626" stroke-width="1.6"/><line x1="293.0" y1="193" x2="336" y2="193" stroke="#262626" stroke-width="1.6"/><rect x="340" y="320" width="200" height="86" rx="6" fill="#FFFFFF" stroke="#262626" stroke-width="1.6"/><text x="440.0" y="361.0" text-anchor="middle" font-family="'JetBrains Mono', Consolas, monospace" font-size="30.959999999999997" fill="#262626" font-weight="700">13</text><text x="440.0" y="388.8" text-anchor="middle" font-family="Inter, 'PingFang SC', 'Microsoft YaHei', sans-serif" font-size="11.5" fill="#6E6E6E" font-weight="700">墨西哥 · 3 城</text><line x1="250" y1="385" x2="293.0" y2="385" stroke="#262626" stroke-width="1.6"/><line x1="293.0" y1="385" x2="293.0" y2="363" stroke="#262626" stroke-width="1.6"/><line x1="293.0" y1="363" x2="336" y2="363" stroke="#262626" stroke-width="1.6"/><rect x="340" y="460" width="200" height="86" rx="6" fill="#FFFFFF" stroke="#262626" stroke-width="1.6"/><text x="440.0" y="501.0" text-anchor="middle" font-family="'JetBrains Mono', Consolas, monospace" font-size="30.959999999999997" fill="#262626" font-weight="700">13</text><text x="440.0" y="528.8" text-anchor="middle" font-family="Inter, 'PingFang SC', 'Microsoft YaHei', sans-serif" font-size="11.5" fill="#6E6E6E" font-weight="700">加拿大 · 2 城</text><line x1="250" y1="385" x2="293.0" y2="385" stroke="#262626" stroke-width="1.6"/><line x1="293.0" y1="385" x2="293.0" y2="503" stroke="#262626" stroke-width="1.6"/><line x1="293.0" y1="503" x2="336" y2="503" stroke="#262626" stroke-width="1.6"/><text x="440" y="254" text-anchor="middle" font-family="'JetBrains Mono', Consolas, monospace" font-size="15" fill="#336EE8" font-weight="700">75.0%</text><text x="440" y="424" text-anchor="middle" font-family="'JetBrains Mono', Consolas, monospace" font-size="15" fill="#6E6E6E" font-weight="700">12.5%</text><text x="440" y="564" text-anchor="middle" font-family="'JetBrains Mono', Consolas, monospace" font-size="15" fill="#6E6E6E" font-weight="700">12.5%</text><rect x="660" y="140" width="300" height="56" rx="6" fill="#FFFFFF" stroke="#E7E7E7" stroke-width="1.4"/><text x="810.0" y="172.0" text-anchor="middle" font-family="Inter, 'PingFang SC', 'Microsoft YaHei', sans-serif" font-size="12" fill="#6E6E6E">1/4 决赛起 8 场全在美国</text><rect x="660" y="210" width="300" height="56" rx="6" fill="#FFFFFF" stroke="#E7E7E7" stroke-width="1.4"/><text x="810.0" y="242.0" text-anchor="middle" font-family="Inter, 'PingFang SC', 'Microsoft YaHei', sans-serif" font-size="12" fill="#6E6E6E">决赛 07-19 · MetLife 东卢瑟福</text><rect x="660" y="335" width="300" height="56" rx="6" fill="#FFFFFF" stroke="#E7E7E7" stroke-width="1.4"/><text x="810.0" y="367.0" text-anchor="middle" font-family="Inter, 'PingFang SC', 'Microsoft YaHei', sans-serif" font-size="12" fill="#6E6E6E">揭幕战 06-11 · 阿兹特克 墨西哥城</text><rect x="660" y="475" width="300" height="56" rx="6" fill="#FFFFFF" stroke="#E7E7E7" stroke-width="1.4"/><text x="810.0" y="507.0" text-anchor="middle" font-family="Inter, 'PingFang SC', 'Microsoft YaHei', sans-serif" font-size="12" fill="#6E6E6E">温哥华 · 多伦多</text><line x1="540" y1="193" x2="598.0" y2="193" stroke="#262626" stroke-width="1.6"/><line x1="598.0" y1="193" x2="598.0" y2="168" stroke="#262626" stroke-width="1.6"/><line x1="598.0" y1="168" x2="656" y2="168" stroke="#262626" stroke-width="1.6"/><line x1="540" y1="193" x2="598.0" y2="193" stroke="#262626" stroke-width="1.6"/><line x1="598.0" y1="193" x2="598.0" y2="238" stroke="#262626" stroke-width="1.6"/><line x1="598.0" y1="238" x2="656" y2="238" stroke="#262626" stroke-width="1.6"/><line x1="540" y1="363" x2="598.0" y2="363" stroke="#262626" stroke-width="1.6"/><line x1="598.0" y1="363" x2="598.0" y2="363" stroke="#262626" stroke-width="1.6"/><line x1="598.0" y1="363" x2="656" y2="363" stroke="#262626" stroke-width="1.6"/><line x1="540" y1="503" x2="598.0" y2="503" stroke="#262626" stroke-width="1.6"/><line x1="598.0" y1="503" x2="598.0" y2="503" stroke="#262626" stroke-width="1.6"/><line x1="598.0" y1="503" x2="656" y2="503" stroke="#262626" stroke-width="1.6"/><ellipse cx="440" cy="184" rx="50" ry="19" fill="none" stroke="#262626" stroke-width="2"/><rect x="40" y="576" width="560" height="76" rx="12" fill="#F3F3F3"/><text x="62" y="600" text-anchor="start" font-family="Inter, 'PingFang SC', 'Microsoft YaHei', sans-serif" font-size="12" fill="#6E6E6E" font-weight="700">自洽校验</text><line x1="69.0" y1="624.05" x2="76" y2="630" stroke="#262626" stroke-width="2.4"/><line x1="76" y1="630" x2="89.0" y2="615.05" stroke="#262626" stroke-width="2.4"/><text x="100" y="634" text-anchor="start" font-family="'JetBrains Mono', Consolas, monospace" font-size="20" fill="#262626" font-weight="700">78 + 13 + 13 = 104</text><text x="340" y="634" text-anchor="start" font-family="'JetBrains Mono', Consolas, monospace" font-size="14" fill="#6E6E6E">11 + 3 + 2 = 16</text><text x="1000" y="150" text-anchor="start" font-family="Inter, 'PingFang SC', 'Microsoft YaHei', sans-serif" font-size="12.5" fill="#6E6E6E">美国场次含全部</text><text x="1000" y="170" text-anchor="start" font-family="Inter, 'PingFang SC', 'Microsoft YaHei', sans-serif" font-size="12.5" fill="#6E6E6E">1/4 决赛、半决赛、</text><text x="1000" y="190" text-anchor="start" font-family="Inter, 'PingFang SC', 'Microsoft YaHei', sans-serif" font-size="12.5" fill="#6E6E6E">季军战与决赛</text><rect x="40" y="642" width="1200" height="36" rx="6" fill="#F3F3F3"/><text x="62" y="665.0" text-anchor="start" font-family="Inter, 'PingFang SC', 'Microsoft YaHei', sans-serif" font-size="12.5" fill="#262626" font-weight="700">So-What</text><text x="136" y="665.0" text-anchor="start" font-family="Inter, 'PingFang SC', 'Microsoft YaHei', sans-serif" font-size="13" fill="#262626">名义三国合办，实为美国主场——3/4 的比赛与整个决赛周都在美国时区</text><line x1="40" y1="690" x2="1240" y2="690" stroke="#E7E7E7" stroke-width="1"/><text x="40" y="709" text-anchor="start" font-family="Inter, 'PingFang SC', 'Microsoft YaHei', sans-serif" font-size="11" fill="#9B9B9B">来源：FIFA.com（主办城市）· Wikipedia · Al Jazeera</text><text x="1240" y="709" text-anchor="end" font-family="'JetBrains Mono', Consolas, monospace" font-size="11" fill="#9B9B9B">8 / 10</text></svg>