<svg width="1280" height="720" viewBox="0 0 1280 720" xmlns="http://www.w3.org/2000/svg">
<rect x="0" y="0" width="1280" height="720" fill="#FFFFFF"/>
<text x="40" y="24" font-family="Inter, 'PingFang SC', 'Microsoft YaHei', sans-serif" font-size="11" letter-spacing="1" fill="#9B9B9B">改善方案　·　决策</text>
<rect x="1188" y="16" width="9" height="9" rx="2" fill="#336EE8"/>
<text x="1240" y="24" font-family="Inter, 'PingFang SC', 'Microsoft YaHei', sans-serif" font-size="12" font-weight="600" text-anchor="end" fill="#262626">Aham</text>
<line x1="40" y1="32" x2="1240" y2="32" stroke="#E7E7E7" stroke-width="1"/>
<text x="40" y="78" font-family="Inter, 'PingFang SC', 'Microsoft YaHei', sans-serif" font-size="32" font-weight="700" fill="#262626">维持现状年损 ¥420 万，立即改善 12 周回本</text>
<line x1="40" y1="94" x2="1240" y2="94" stroke="#E7E7E7" stroke-width="1"/>
<line x1="40" y1="690" x2="1240" y2="690" stroke="#E7E7E7" stroke-width="1"/>
<text x="40" y="709" font-family="Inter, 'PingFang SC', 'Microsoft YaHei', sans-serif" font-size="11" fill="#9B9B9B">来源：内部测算</text>
<text x="1240" y="709" font-family="'JetBrains Mono', Consolas, monospace" font-size="11" text-anchor="end" fill="#9B9B9B">10 / 11</text>
<rect x="660" y="150" width="580" height="432" rx="12" fill="#F3F3F3"/>
<text x="70" y="198" font-family="Inter, 'PingFang SC', 'Microsoft YaHei', sans-serif" font-size="22" font-weight="700" fill="#262626">维持现状</text>
<text x="70" y="222" font-family="Inter, 'PingFang SC', 'Microsoft YaHei', sans-serif" font-size="12" fill="#9B9B9B">DO NOTHING</text>
<text x="700" y="198" font-family="Inter, 'PingFang SC', 'Microsoft YaHei', sans-serif" font-size="22" font-weight="700" fill="#262626">立即改善</text>
<text x="820" y="198" font-family="Inter, 'PingFang SC', 'Microsoft YaHei', sans-serif" font-size="14" font-weight="600" fill="#336EE8">推荐</text>
<rect x="820" y="206" width="40" height="2" fill="#336EE8"/>
<text x="700" y="222" font-family="Inter, 'PingFang SC', 'Microsoft YaHei', sans-serif" font-size="12" fill="#9B9B9B">ACT NOW</text>
<circle cx="640" cy="206" r="26" fill="#FFFFFF" stroke="#E7E7E7" stroke-width="1.5"/>
<text x="640" y="213" font-family="Inter, 'PingFang SC', 'Microsoft YaHei', sans-serif" font-size="16" font-weight="700" text-anchor="middle" fill="#9B9B9B">VS</text>
<text x="70" y="296" font-family="Inter, 'PingFang SC', 'Microsoft YaHei', sans-serif" font-size="14" fill="#6E6E6E">综合 OEE</text>
<circle cx="286" cy="291" r="4" fill="#9E3D31"/>
<text x="302" y="296" font-family="'JetBrains Mono', Consolas, monospace" font-size="17" fill="#262626">71%</text>
<text x="700" y="296" font-family="Inter, 'PingFang SC', 'Microsoft YaHei', sans-serif" font-size="14" fill="#6E6E6E">综合 OEE</text>
<circle cx="916" cy="291" r="4" fill="#5A7A60"/>
<text x="932" y="296" font-family="'JetBrains Mono', Consolas, monospace" font-size="17" fill="#262626">85%+</text>
<line x1="70" y1="314" x2="600" y2="314" stroke="#E7E7E7" stroke-width="0.75"/>
<line x1="700" y1="314" x2="1216" y2="314" stroke="#E7E7E7" stroke-width="0.75"/>
<text x="70" y="352" font-family="Inter, 'PingFang SC', 'Microsoft YaHei', sans-serif" font-size="14" fill="#6E6E6E">年停机损失</text>
<circle cx="286" cy="347" r="4" fill="#9E3D31"/>
<text x="302" y="352" font-family="Inter, 'PingFang SC', 'Microsoft YaHei', sans-serif" font-size="17" fill="#262626">¥420 万</text>
<text x="700" y="352" font-family="Inter, 'PingFang SC', 'Microsoft YaHei', sans-serif" font-size="14" fill="#6E6E6E">年停机损失</text>
<circle cx="916" cy="347" r="4" fill="#5A7A60"/>
<text x="932" y="352" font-family="Inter, 'PingFang SC', 'Microsoft YaHei', sans-serif" font-size="17" fill="#262626">省 ¥340 万</text>
<line x1="70" y1="370" x2="600" y2="370" stroke="#E7E7E7" stroke-width="0.75"/>
<line x1="700" y1="370" x2="1216" y2="370" stroke="#E7E7E7" stroke-width="0.75"/>
<text x="70" y="408" font-family="Inter, 'PingFang SC', 'Microsoft YaHei', sans-serif" font-size="14" fill="#6E6E6E">效率趋势</text>
<circle cx="286" cy="403" r="4" fill="#9E3D31"/>
<text x="302" y="408" font-family="Inter, 'PingFang SC', 'Microsoft YaHei', sans-serif" font-size="17" fill="#262626">持续下滑</text>
<text x="700" y="408" font-family="Inter, 'PingFang SC', 'Microsoft YaHei', sans-serif" font-size="14" fill="#6E6E6E">效率趋势</text>
<circle cx="916" cy="403" r="4" fill="#5A7A60"/>
<text x="932" y="408" font-family="Inter, 'PingFang SC', 'Microsoft YaHei', sans-serif" font-size="17" fill="#262626">12 周回本</text>
<line x1="70" y1="426" x2="600" y2="426" stroke="#E7E7E7" stroke-width="0.75"/>
<line x1="700" y1="426" x2="1216" y2="426" stroke="#E7E7E7" stroke-width="0.75"/>
<text x="70" y="464" font-family="Inter, 'PingFang SC', 'Microsoft YaHei', sans-serif" font-size="14" fill="#6E6E6E">实施风险</text>
<circle cx="286" cy="459" r="4" fill="#8A7333"/>
<text x="302" y="464" font-family="Inter, 'PingFang SC', 'Microsoft YaHei', sans-serif" font-size="17" fill="#262626">风险累积</text>
<text x="700" y="464" font-family="Inter, 'PingFang SC', 'Microsoft YaHei', sans-serif" font-size="14" fill="#6E6E6E">实施风险</text>
<circle cx="916" cy="459" r="4" fill="#5A7A60"/>
<text x="932" y="464" font-family="Inter, 'PingFang SC', 'Microsoft YaHei', sans-serif" font-size="17" fill="#262626">中等可控</text>
<line x1="70" y1="482" x2="600" y2="482" stroke="#E7E7E7" stroke-width="0.75"/>
<line x1="700" y1="482" x2="1216" y2="482" stroke="#E7E7E7" stroke-width="0.75"/>
<text x="70" y="520" font-family="Inter, 'PingFang SC', 'Microsoft YaHei', sans-serif" font-size="14" fill="#6E6E6E">12 个月后</text>
<circle cx="286" cy="515" r="4" fill="#9E3D31"/>
<text x="302" y="520" font-family="Inter, 'PingFang SC', 'Microsoft YaHei', sans-serif" font-size="17" fill="#262626">进一步恶化</text>
<text x="700" y="520" font-family="Inter, 'PingFang SC', 'Microsoft YaHei', sans-serif" font-size="14" fill="#6E6E6E">12 个月后</text>
<circle cx="916" cy="515" r="4" fill="#5A7A60"/>
<text x="932" y="520" font-family="Inter, 'PingFang SC', 'Microsoft YaHei', sans-serif" font-size="17" fill="#262626">进入良性循环</text>
<line x1="70" y1="538" x2="600" y2="538" stroke="#E7E7E7" stroke-width="0.75"/>
<line x1="700" y1="538" x2="1216" y2="538" stroke="#E7E7E7" stroke-width="0.75"/>
<circle cx="44" cy="626" r="3" fill="#336EE8"/>
<text x="60" y="632" font-family="Inter, 'PingFang SC', 'Microsoft YaHei', sans-serif" font-size="15" fill="#262626">同样 12 周：要么继续亏 ¥420 万/年，要么省下 ¥340 万——选择显而易见。</text>
</svg>
