<svg width="1280" height="720" viewBox="0 0 1280 720" xmlns="http://www.w3.org/2000/svg">
<rect x="0" y="0" width="1280" height="720" fill="#FFFFFF"/>
<text x="40" y="24" font-family="Inter, 'PingFang SC', 'Microsoft YaHei', sans-serif" font-size="11" letter-spacing="1" fill="#9B9B9B">改善方案　·　体系架构</text>
<rect x="1188" y="16" width="9" height="9" rx="2" fill="#336EE8"/>
<text x="1240" y="24" font-family="Inter, 'PingFang SC', 'Microsoft YaHei', sans-serif" font-size="12" font-weight="600" text-anchor="end" fill="#262626">Aham</text>
<line x1="40" y1="32" x2="1240" y2="32" stroke="#E7E7E7" stroke-width="1"/>
<text x="40" y="78" font-family="Inter, 'PingFang SC', 'Microsoft YaHei', sans-serif" font-size="32" font-weight="700" fill="#262626">三层改善体系：目标对齐、过程管理、现场执行</text>
<line x1="40" y1="94" x2="1240" y2="94" stroke="#E7E7E7" stroke-width="1"/>
<line x1="40" y1="690" x2="1240" y2="690" stroke="#E7E7E7" stroke-width="1"/>
<text x="40" y="709" font-family="Inter, 'PingFang SC', 'Microsoft YaHei', sans-serif" font-size="11" fill="#9B9B9B">来源：改善体系设计 · 2026-06</text>
<text x="1240" y="709" font-family="'JetBrains Mono', Consolas, monospace" font-size="11" text-anchor="end" fill="#9B9B9B">07 / 11</text>
<text x="40" y="158" font-family="Inter, 'PingFang SC', 'Microsoft YaHei', sans-serif" font-size="22" font-weight="600" fill="#262626">战略层</text>
<text x="40" y="184" font-family="Inter, 'PingFang SC', 'Microsoft YaHei', sans-serif" font-size="14" fill="#6E6E6E">目标与对标</text>
<text x="40" y="236" font-family="'JetBrains Mono', Consolas, monospace" font-size="30" font-weight="700" fill="#C4C4C4">L1</text>
<rect x="240" y="120" width="322.6666666666667" height="150" rx="12" fill="#F3F3F3"/>
<text x="401.33333333333337" y="200.0" font-family="Inter, 'PingFang SC', 'Microsoft YaHei', sans-serif" font-size="15" font-weight="600" text-anchor="middle" fill="#262626">OEE 目标 85%</text>
<rect x="578.6666666666667" y="120" width="322.6666666666667" height="150" rx="12" fill="#F3F3F3"/>
<text x="740.0000000000001" y="200.0" font-family="Inter, 'PingFang SC', 'Microsoft YaHei', sans-serif" font-size="15" font-weight="600" text-anchor="middle" fill="#262626">对标行业基准</text>
<rect x="917.3333333333335" y="120" width="322.6666666666667" height="150" rx="12" fill="#F3F3F3"/>
<text x="1078.6666666666667" y="200.0" font-family="Inter, 'PingFang SC', 'Microsoft YaHei', sans-serif" font-size="15" font-weight="600" text-anchor="middle" fill="#262626">投入产出测算</text>
<line x1="1140" y1="274" x2="1140" y2="286" stroke="#9B9B9B" stroke-width="2"/>
<polygon points="1135,282 1140,290 1145,282" fill="#9B9B9B"/>
<text x="40" y="330" font-family="Inter, 'PingFang SC', 'Microsoft YaHei', sans-serif" font-size="22" font-weight="600" fill="#262626">管理层</text>
<text x="40" y="356" font-family="Inter, 'PingFang SC', 'Microsoft YaHei', sans-serif" font-size="14" fill="#6E6E6E">过程与机制</text>
<text x="40" y="408" font-family="'JetBrains Mono', Consolas, monospace" font-size="30" font-weight="700" fill="#C4C4C4">L2</text>
<rect x="240" y="292" width="238.0" height="150" rx="12" fill="#F3F3F3"/>
<text x="359.0" y="372.0" font-family="Inter, 'PingFang SC', 'Microsoft YaHei', sans-serif" font-size="15" font-weight="600" text-anchor="middle" fill="#262626">日清会机制</text>
<rect x="494.0" y="292" width="238.0" height="150" rx="12" fill="#F3F3F3"/>
<text x="613.0" y="372.0" font-family="Inter, 'PingFang SC', 'Microsoft YaHei', sans-serif" font-size="15" font-weight="600" text-anchor="middle" fill="#262626">OEE 看板</text>
<rect x="748.0" y="292" width="238.0" height="150" rx="12" fill="#F3F3F3"/>
<text x="867.0" y="372.0" font-family="Inter, 'PingFang SC', 'Microsoft YaHei', sans-serif" font-size="15" font-weight="600" text-anchor="middle" fill="#262626">标准作业体系</text>
<rect x="1002.0" y="292" width="238.0" height="150" rx="12" fill="#F3F3F3"/>
<text x="1121.0" y="372.0" font-family="Inter, 'PingFang SC', 'Microsoft YaHei', sans-serif" font-size="15" font-weight="600" text-anchor="middle" fill="#262626">月度改善例会</text>
<line x1="1140" y1="446" x2="1140" y2="458" stroke="#9B9B9B" stroke-width="2"/>
<polygon points="1135,454 1140,462 1145,454" fill="#9B9B9B"/>
<text x="40" y="502" font-family="Inter, 'PingFang SC', 'Microsoft YaHei', sans-serif" font-size="22" font-weight="600" fill="#262626">执行层</text>
<text x="40" y="528" font-family="Inter, 'PingFang SC', 'Microsoft YaHei', sans-serif" font-size="14" fill="#6E6E6E">现场与动作</text>
<text x="40" y="580" font-family="'JetBrains Mono', Consolas, monospace" font-size="30" font-weight="700" fill="#C4C4C4">L3</text>
<rect x="240" y="464" width="187.2" height="150" rx="12" fill="#F3F3F3"/>
<text x="333.6" y="544.0" font-family="Inter, 'PingFang SC', 'Microsoft YaHei', sans-serif" font-size="15" font-weight="600" text-anchor="middle" fill="#262626">SMED 换型</text>
<rect x="443.2" y="464" width="187.2" height="150" rx="12" fill="#F3F3F3"/>
<text x="536.8" y="544.0" font-family="Inter, 'PingFang SC', 'Microsoft YaHei', sans-serif" font-size="15" font-weight="600" text-anchor="middle" fill="#262626">设备点检</text>
<rect x="646.4" y="464" width="187.2" height="150" rx="12" fill="#F3F3F3"/>
<text x="740.0" y="544.0" font-family="Inter, 'PingFang SC', 'Microsoft YaHei', sans-serif" font-size="15" font-weight="600" text-anchor="middle" fill="#262626">配送节拍</text>
<rect x="849.5999999999999" y="464" width="187.2" height="150" rx="12" fill="#F3F3F3"/>
<text x="943.1999999999999" y="544.0" font-family="Inter, 'PingFang SC', 'Microsoft YaHei', sans-serif" font-size="15" font-weight="600" text-anchor="middle" fill="#262626">备件预置</text>
<rect x="1052.8" y="464" width="187.2" height="150" rx="12" fill="#F3F3F3"/>
<text x="1146.3999999999999" y="544.0" font-family="Inter, 'PingFang SC', 'Microsoft YaHei', sans-serif" font-size="15" font-weight="600" text-anchor="middle" fill="#262626">培训认证</text>
</svg>
