<svg width="1280" height="720" viewBox="0 0 1280 720" xmlns="http://www.w3.org/2000/svg">
<rect x="0" y="0" width="1280" height="720" fill="#FFFFFF"/>
<text x="40" y="24" font-family="Inter, 'PingFang SC', 'Microsoft YaHei', sans-serif" font-size="11" letter-spacing="1" fill="#9B9B9B">改善方案　·　运行机制</text>
<rect x="1188" y="16" width="9" height="9" rx="2" fill="#336EE8"/>
<text x="1240" y="24" font-family="Inter, 'PingFang SC', 'Microsoft YaHei', sans-serif" font-size="12" font-weight="600" text-anchor="end" fill="#262626">Aham</text>
<line x1="40" y1="32" x2="1240" y2="32" stroke="#E7E7E7" stroke-width="1"/>
<text x="40" y="78" font-family="Inter, 'PingFang SC', 'Microsoft YaHei', sans-serif" font-size="32" font-weight="700" fill="#262626">改善以四步闭环推进，月度复盘驱动持续迭代</text>
<line x1="40" y1="94" x2="1240" y2="94" stroke="#E7E7E7" stroke-width="1"/>
<line x1="40" y1="690" x2="1240" y2="690" stroke="#E7E7E7" stroke-width="1"/>
<text x="40" y="709" font-family="Inter, 'PingFang SC', 'Microsoft YaHei', sans-serif" font-size="11" fill="#9B9B9B">来源：内部测算</text>
<text x="1240" y="709" font-family="'JetBrains Mono', Consolas, monospace" font-size="11" text-anchor="end" fill="#9B9B9B">09 / 11</text>
<rect x="40" y="200" width="192" height="150" rx="12" fill="#F3F3F3"/>
<text x="58" y="240" font-family="'JetBrains Mono', Consolas, monospace" font-size="22" font-weight="700" fill="#C4C4C4">01</text>
<text x="58" y="280" font-family="Inter, 'PingFang SC', 'Microsoft YaHei', sans-serif" font-size="18" font-weight="600" fill="#262626">测量</text>
<text x="58" y="302" font-family="Inter, 'PingFang SC', 'Microsoft YaHei', sans-serif" font-size="12" fill="#9B9B9B">Measure</text>
<text x="58" y="330" font-family="Inter, 'PingFang SC', 'Microsoft YaHei', sans-serif" font-size="13" fill="#6E6E6E">OEE/停机/不良采集</text>
<text x="58" y="380" font-family="Inter, 'PingFang SC', 'Microsoft YaHei', sans-serif" font-size="11" fill="#9B9B9B">交付</text>
<text x="58" y="402" font-family="'JetBrains Mono', Consolas, monospace" font-size="14" font-weight="600" fill="#262626">采集率 ≥95%</text>
<line x1="242" y1="275.0" x2="278" y2="275.0" stroke="#9B9B9B" stroke-width="2"/>
<polygon points="278,270.0 286,275.0 278,280.0" fill="#9B9B9B"/>
<rect x="292" y="200" width="192" height="150" rx="12" fill="#F3F3F3"/>
<text x="310" y="240" font-family="'JetBrains Mono', Consolas, monospace" font-size="22" font-weight="700" fill="#C4C4C4">02</text>
<text x="310" y="280" font-family="Inter, 'PingFang SC', 'Microsoft YaHei', sans-serif" font-size="18" font-weight="600" fill="#262626">诊断</text>
<text x="310" y="302" font-family="Inter, 'PingFang SC', 'Microsoft YaHei', sans-serif" font-size="12" fill="#9B9B9B">Diagnose</text>
<text x="310" y="330" font-family="Inter, 'PingFang SC', 'Microsoft YaHei', sans-serif" font-size="13" fill="#6E6E6E">根因定位、瓶颈识别</text>
<text x="310" y="380" font-family="Inter, 'PingFang SC', 'Microsoft YaHei', sans-serif" font-size="11" fill="#9B9B9B">交付</text>
<text x="310" y="402" font-family="'JetBrains Mono', Consolas, monospace" font-size="14" font-weight="600" fill="#262626">锁定 Top3</text>
<line x1="494" y1="275.0" x2="530" y2="275.0" stroke="#9B9B9B" stroke-width="2"/>
<polygon points="530,270.0 538,275.0 530,280.0" fill="#9B9B9B"/>
<rect x="544" y="200" width="192" height="150" rx="12" fill="#F3F3F3"/>
<text x="562" y="240" font-family="'JetBrains Mono', Consolas, monospace" font-size="22" font-weight="700" fill="#C4C4C4">03</text>
<text x="562" y="280" font-family="Inter, 'PingFang SC', 'Microsoft YaHei', sans-serif" font-size="18" font-weight="600" fill="#262626">改善</text>
<text x="562" y="302" font-family="Inter, 'PingFang SC', 'Microsoft YaHei', sans-serif" font-size="12" fill="#9B9B9B">Improve</text>
<text x="562" y="330" font-family="Inter, 'PingFang SC', 'Microsoft YaHei', sans-serif" font-size="13" fill="#6E6E6E">SMED/点检/看板</text>
<text x="562" y="380" font-family="Inter, 'PingFang SC', 'Microsoft YaHei', sans-serif" font-size="11" fill="#9B9B9B">交付</text>
<text x="562" y="402" font-family="'JetBrains Mono', Consolas, monospace" font-size="14" font-weight="600" fill="#262626">换型 −25min</text>
<line x1="746" y1="275.0" x2="782" y2="275.0" stroke="#9B9B9B" stroke-width="2"/>
<polygon points="782,270.0 790,275.0 782,280.0" fill="#9B9B9B"/>
<rect x="796" y="200" width="192" height="150" rx="12" fill="#F3F3F3"/>
<text x="814" y="240" font-family="'JetBrains Mono', Consolas, monospace" font-size="22" font-weight="700" fill="#C4C4C4">04</text>
<text x="814" y="280" font-family="Inter, 'PingFang SC', 'Microsoft YaHei', sans-serif" font-size="18" font-weight="600" fill="#262626">标准化</text>
<text x="814" y="302" font-family="Inter, 'PingFang SC', 'Microsoft YaHei', sans-serif" font-size="12" fill="#9B9B9B">Standardize</text>
<text x="814" y="330" font-family="Inter, 'PingFang SC', 'Microsoft YaHei', sans-serif" font-size="13" fill="#6E6E6E">标准作业+培训</text>
<text x="814" y="380" font-family="Inter, 'PingFang SC', 'Microsoft YaHei', sans-serif" font-size="11" fill="#9B9B9B">交付</text>
<text x="814" y="402" font-family="'JetBrains Mono', Consolas, monospace" font-size="14" font-weight="600" fill="#262626">稽核 ≥90</text>
<line x1="998" y1="275.0" x2="1034" y2="275.0" stroke="#9B9B9B" stroke-width="2"/>
<polygon points="1034,270.0 1042,275.0 1034,280.0" fill="#9B9B9B"/>
<rect x="1048" y="200" width="192" height="150" rx="12" fill="#F3F3F3"/>
<text x="1066" y="240" font-family="'JetBrains Mono', Consolas, monospace" font-size="22" font-weight="700" fill="#C4C4C4">05</text>
<text x="1066" y="280" font-family="Inter, 'PingFang SC', 'Microsoft YaHei', sans-serif" font-size="18" font-weight="600" fill="#262626">复盘</text>
<text x="1066" y="302" font-family="Inter, 'PingFang SC', 'Microsoft YaHei', sans-serif" font-size="12" fill="#9B9B9B">Review</text>
<text x="1066" y="330" font-family="Inter, 'PingFang SC', 'Microsoft YaHei', sans-serif" font-size="13" fill="#6E6E6E">月度例会+迭代</text>
<text x="1066" y="380" font-family="Inter, 'PingFang SC', 'Microsoft YaHei', sans-serif" font-size="11" fill="#9B9B9B">交付</text>
<text x="1066" y="402" font-family="'JetBrains Mono', Consolas, monospace" font-size="14" font-weight="600" fill="#262626">OEE 月升</text>
<line x1="1144.0" y1="416" x2="1144.0" y2="442" stroke="#9B9B9B" stroke-width="1.5"/>
<line x1="1144.0" y1="442" x2="136.0" y2="442" stroke="#9B9B9B" stroke-width="1.5"/>
<line x1="136.0" y1="442" x2="136.0" y2="416" stroke="#9B9B9B" stroke-width="1.5"/>
<polygon points="131.0,424 136.0,416 141.0,424" fill="#9B9B9B"/>
<text x="640.0" y="464" font-family="Inter, 'PingFang SC', 'Microsoft YaHei', sans-serif" font-size="14" text-anchor="middle" fill="#6E6E6E">每月复盘 · 持续迭代，避免回潮</text>
<circle cx="44" cy="626" r="3" fill="#336EE8"/>
<text x="60" y="632" font-family="Inter, 'PingFang SC', 'Microsoft YaHei', sans-serif" font-size="15" fill="#262626">闭环每月跑一轮：数据驱动诊断、诊断驱动改善、改善沉淀为标准。</text>
</svg>
