<svg width="1280" height="1280" viewBox="0 0 1280 1280" fill="none" xmlns="http://www.w3.org/2000/svg">
  <rect width="1280" height="1280" fill="#FFFFFF"/>
  <g transform="translate(0,320)">
    <rect x="1" y="1" width="1278" height="638" fill="#FFFFFF" stroke="#E7E7E7" stroke-width="2"/>
    <rect x="0" y="0" width="1280" height="6" fill="#1677FF"/>

    <!-- PPT logo（设计：工程化锐角方 #1677FF + 白色咨询图表，origin 96,212 size168） -->
    <g>
      <rect x="96" y="212" width="168" height="168" rx="16" fill="#1677FF"/>
      <!-- 标题条 -->
      <rect x="134" y="248" width="92" height="13" rx="3" fill="#FFFFFF"/>
      <!-- 升序条形图：底部对齐 y=344 -->
      <rect x="134" y="316" width="24" height="28" rx="3" fill="#FFFFFF"/>
      <rect x="168" y="296" width="24" height="48" rx="3" fill="#FFFFFF"/>
      <rect x="202" y="272" width="24" height="72" rx="3" fill="#FFFFFF"/>
    </g>

    <g font-family="'Inter','PingFang SC','Microsoft YaHei',system-ui,-apple-system,sans-serif">
      <text x="312" y="268" font-size="96" font-weight="700" fill="#262626" letter-spacing="-1">Aham PPT</text>
      <text x="316" y="332" font-size="40" font-weight="500" fill="#6E6E6E">咨询级 AI 演示制作技能</text>
      <text x="316" y="382" font-size="26" font-weight="400" fill="#9B9B9B">对标麦肯锡/德勤 · 八阶段流程 · 原生 PPTX 输出</text>
    </g>

    <g transform="translate(96,456)">
      <rect width="38" height="38" rx="6" fill="#1677FF"/>
      <rect x="50" width="38" height="38" rx="6" fill="#0958D9"/>
      <rect x="100" width="38" height="38" rx="6" fill="#F3F3F3"/>
      <rect x="150" width="38" height="38" rx="6" fill="#E7E7E7"/>
      <rect x="200" width="38" height="38" rx="6" fill="#262626"/>
    </g>

    <g font-family="'Inter','PingFang SC','Microsoft YaHei',system-ui,sans-serif">
      <text x="98" y="560" font-size="26" font-weight="400" fill="#6E6E6E">把灵光一现，做成能用的 AI 工具。</text>
      <text x="1182" y="560" font-size="26" font-weight="600" fill="#1677FF" text-anchor="end">Claude Skill</text>
    </g>
  </g>
</svg>
