<svg width="1280" height="720" viewBox="0 0 1280 720" xmlns="http://www.w3.org/2000/svg"><rect width="1280" height="720" fill="#FFFFFF"/><rect x="0" y="0" width="300" height="6" fill="#2B4C9B"/><rect x="300" y="0" width="300" height="6" fill="#157A44"/><rect x="980" y="0" width="200" height="6" fill="#C42B3C"/><rect x="1180" y="0" width="100" height="6" fill="#C9A227"/><rect x="0" y="100" width="30" height="96" fill="#171717"/><text x="15" y="132" text-anchor="middle" font-family="Inter, 'PingFang SC', 'Microsoft YaHei', sans-serif" font-size="13" fill="#FFFFFF" font-weight="600">赛</text><text x="15" y="158" text-anchor="middle" font-family="Inter, 'PingFang SC', 'Microsoft YaHei', sans-serif" font-size="13" fill="#FFFFFF" font-weight="600">制</text><rect x="1188" y="15" width="9" height="9" rx="2" fill="#C9A227"/><text x="1240" y="24" text-anchor="end" font-family="Inter, 'PingFang SC', 'Microsoft YaHei', sans-serif" font-size="12" fill="#262626" font-weight="600">Aham</text><rect x="1188" y="34" width="52" height="24" rx="3" fill="#171717"/><text x="1214.0" y="50" text-anchor="middle" font-family="Inter, 'PingFang SC', 'Microsoft YaHei', sans-serif" font-size="11.5" fill="#C9A227" font-weight="700">赛制</text><text x="40" y="74" text-anchor="start" font-family="Inter, 'PingFang SC', 'Microsoft YaHei', sans-serif" font-size="26" fill="#262626" font-weight="700">12 组只淘汰 16 队：第三名也有 2/3 概率晋级</text><rect x="40" y="86" width="120" height="4" fill="#C9A227"/><text x="60" y="128" text-anchor="start" font-family="Inter, 'PingFang SC', 'Microsoft YaHei', sans-serif" font-size="11.5" fill="#9B9B9B">12 组 x 4 队 = 48；每组循环 6 场 = 72 场小组赛</text><text x="150" y="182" text-anchor="middle" font-family="Inter, 'PingFang SC', 'Microsoft YaHei', sans-serif" font-size="9.5" fill="#9B9B9B" font-weight="700">A</text><text x="184" y="182" text-anchor="middle" font-family="Inter, 'PingFang SC', 'Microsoft YaHei', sans-serif" font-size="9.5" fill="#9B9B9B" font-weight="700">B</text><text x="218" y="182" text-anchor="middle" font-family="Inter, 'PingFang SC', 'Microsoft YaHei', sans-serif" font-size="9.5" fill="#9B9B9B" font-weight="700">C</text><text x="252" y="182" text-anchor="middle" font-family="Inter, 'PingFang SC', 'Microsoft YaHei', sans-serif" font-size="9.5" fill="#9B9B9B" font-weight="700">D</text><text x="286" y="182" text-anchor="middle" font-family="Inter, 'PingFang SC', 'Microsoft YaHei', sans-serif" font-size="9.5" fill="#9B9B9B" font-weight="700">E</text><text x="320" y="182" text-anchor="middle" font-family="Inter, 'PingFang SC', 'Microsoft YaHei', sans-serif" font-size="9.5" fill="#9B9B9B" font-weight="700">F</text><text x="354" y="182" text-anchor="middle" font-family="Inter, 'PingFang SC', 'Microsoft YaHei', sans-serif" font-size="9.5" fill="#9B9B9B" font-weight="700">G</text><text x="388" y="182" text-anchor="middle" font-family="Inter, 'PingFang SC', 'Microsoft YaHei', sans-serif" font-size="9.5" fill="#9B9B9B" font-weight="700">H</text><text x="422" y="182" text-anchor="middle" font-family="Inter, 'PingFang SC', 'Microsoft YaHei', sans-serif" font-size="9.5" fill="#9B9B9B" font-weight="700">I</text><text x="456" y="182" text-anchor="middle" font-family="Inter, 'PingFang SC', 'Microsoft YaHei', sans-serif" font-size="9.5" fill="#9B9B9B" font-weight="700">J</text><text x="490" y="182" text-anchor="middle" font-family="Inter, 'PingFang SC', 'Microsoft YaHei', sans-serif" font-size="9.5" fill="#9B9B9B" font-weight="700">K</text><text x="524" y="182" text-anchor="middle" font-family="Inter, 'PingFang SC', 'Microsoft YaHei', sans-serif" font-size="9.5" fill="#9B9B9B" font-weight="700">L</text><text x="132" y="200" text-anchor="end" font-family="Inter, 'PingFang SC', 'Microsoft YaHei', sans-serif" font-size="10.5" fill="#6E6E6E">第 1 名</text><circle cx="150" cy="196" r="10" fill="#9B9B9B"/><circle cx="184" cy="196" r="10" fill="#9B9B9B"/><circle cx="218" cy="196" r="10" fill="#9B9B9B"/><circle cx="252" cy="196" r="10" fill="#9B9B9B"/><circle cx="286" cy="196" r="10" fill="#9B9B9B"/><circle cx="320" cy="196" r="10" fill="#9B9B9B"/><circle cx="354" cy="196" r="10" fill="#9B9B9B"/><circle cx="388" cy="196" r="10" fill="#9B9B9B"/><circle cx="422" cy="196" r="10" fill="#9B9B9B"/><circle cx="456" cy="196" r="10" fill="#9B9B9B"/><circle cx="490" cy="196" r="10" fill="#9B9B9B"/><circle cx="524" cy="196" r="10" fill="#9B9B9B"/><text x="132" y="234" text-anchor="end" font-family="Inter, 'PingFang SC', 'Microsoft YaHei', sans-serif" font-size="10.5" fill="#6E6E6E">第 2 名</text><circle cx="150" cy="230" r="10" fill="#9B9B9B"/><circle cx="184" cy="230" r="10" fill="#9B9B9B"/><circle cx="218" cy="230" r="10" fill="#9B9B9B"/><circle cx="252" cy="230" r="10" fill="#9B9B9B"/><circle cx="286" cy="230" r="10" fill="#9B9B9B"/><circle cx="320" cy="230" r="10" fill="#9B9B9B"/><circle cx="354" cy="230" r="10" fill="#9B9B9B"/><circle cx="388" cy="230" r="10" fill="#9B9B9B"/><circle cx="422" cy="230" r="10" fill="#9B9B9B"/><circle cx="456" cy="230" r="10" fill="#9B9B9B"/><circle cx="490" cy="230" r="10" fill="#9B9B9B"/><circle cx="524" cy="230" r="10" fill="#9B9B9B"/><text x="132" y="268" text-anchor="end" font-family="Inter, 'PingFang SC', 'Microsoft YaHei', sans-serif" font-size="10.5" fill="#6E6E6E">第 3 名</text><circle cx="150" cy="264" r="10" fill="#FFFFFF" stroke="#6E6E6E" stroke-width="2.2" stroke-dasharray="3 2"/><circle cx="184" cy="264" r="10" fill="#FFFFFF" stroke="#6E6E6E" stroke-width="2.2" stroke-dasharray="3 2"/><circle cx="218" cy="264" r="10" fill="#FFFFFF" stroke="#6E6E6E" stroke-width="2.2" stroke-dasharray="3 2"/><circle cx="252" cy="264" r="10" fill="#FFFFFF" stroke="#6E6E6E" stroke-width="2.2" stroke-dasharray="3 2"/><circle cx="286" cy="264" r="10" fill="#FFFFFF" stroke="#6E6E6E" stroke-width="2.2" stroke-dasharray="3 2"/><circle cx="320" cy="264" r="10" fill="#FFFFFF" stroke="#6E6E6E" stroke-width="2.2" stroke-dasharray="3 2"/><circle cx="354" cy="264" r="10" fill="#FFFFFF" stroke="#6E6E6E" stroke-width="2.2" stroke-dasharray="3 2"/><circle cx="388" cy="264" r="10" fill="#FFFFFF" stroke="#6E6E6E" stroke-width="2.2" stroke-dasharray="3 2"/><circle cx="422" cy="264" r="10" fill="#FFFFFF" stroke="#6E6E6E" stroke-width="2.2" stroke-dasharray="3 2"/><circle cx="456" cy="264" r="10" fill="#FFFFFF" stroke="#6E6E6E" stroke-width="2.2" stroke-dasharray="3 2"/><circle cx="490" cy="264" r="10" fill="#FFFFFF" stroke="#6E6E6E" stroke-width="2.2" stroke-dasharray="3 2"/><circle cx="524" cy="264" r="10" fill="#FFFFFF" stroke="#6E6E6E" stroke-width="2.2" stroke-dasharray="3 2"/><text x="132" y="302" text-anchor="end" font-family="Inter, 'PingFang SC', 'Microsoft YaHei', sans-serif" font-size="10.5" fill="#6E6E6E">第 4 名</text><circle cx="150" cy="298" r="10" fill="#C4C4C4"/><circle cx="184" cy="298" r="10" fill="#C4C4C4"/><circle cx="218" cy="298" r="10" fill="#C4C4C4"/><circle cx="252" cy="298" r="10" fill="#C4C4C4"/><circle cx="286" cy="298" r="10" fill="#C4C4C4"/><circle cx="320" cy="298" r="10" fill="#C4C4C4"/><circle cx="354" cy="298" r="10" fill="#C4C4C4"/><circle cx="388" cy="298" r="10" fill="#C4C4C4"/><circle cx="422" cy="298" r="10" fill="#C4C4C4"/><circle cx="456" cy="298" r="10" fill="#C4C4C4"/><circle cx="490" cy="298" r="10" fill="#C4C4C4"/><circle cx="524" cy="298" r="10" fill="#C4C4C4"/><circle cx="156" cy="348" r="7" fill="#9B9B9B"/><text x="172" y="352" text-anchor="start" font-family="Inter, 'PingFang SC', 'Microsoft YaHei', sans-serif" font-size="12" fill="#6E6E6E">前二 · 直通 32 强（24 队）</text><circle cx="156" cy="375" r="7" fill="#FFFFFF" stroke="#6E6E6E" stroke-width="2.2" stroke-dasharray="3 2"/><text x="172" y="379" text-anchor="start" font-family="Inter, 'PingFang SC', 'Microsoft YaHei', sans-serif" font-size="12" fill="#6E6E6E">第三名 · 12 个里选 8 个</text><circle cx="156" cy="402" r="7" fill="#C4C4C4"/><text x="172" y="406" text-anchor="start" font-family="Inter, 'PingFang SC', 'Microsoft YaHei', sans-serif" font-size="12" fill="#6E6E6E">第四名 · 直接出局（12 队）</text><text x="150" y="478" text-anchor="start" font-family="Inter, 'PingFang SC', 'Microsoft YaHei', sans-serif" font-size="12.5" fill="#262626" font-weight="700">小组赛出局率：上届 vs 本届</text><text x="150" y="512" text-anchor="start" font-family="'JetBrains Mono', Consolas, monospace" font-size="11.5" fill="#6E6E6E">2022</text><rect x="196" y="498" width="210" height="18" rx="2" fill="#9B9B9B"/><text x="414" y="512" text-anchor="start" font-family="'JetBrains Mono', Consolas, monospace" font-size="12" fill="#262626" font-weight="700">50.0%</text><text x="150" y="546" text-anchor="start" font-family="'JetBrains Mono', Consolas, monospace" font-size="11.5" fill="#6E6E6E">2026</text><rect x="196" y="532" width="140" height="18" rx="2" fill="#C8C8C8"/><text x="344" y="546" text-anchor="start" font-family="'JetBrains Mono', Consolas, monospace" font-size="12" fill="#262626" font-weight="700">33.3%</text><text x="150" y="580" text-anchor="start" font-family="Inter, 'PingFang SC', 'Microsoft YaHei', sans-serif" font-size="11" fill="#9B9B9B">同样淘汰 16 队，分母从 32 变 48</text><rect x="780" y="168" width="170" height="92" rx="6" fill="#262626"/><text x="865.0" y="212.0" text-anchor="middle" font-family="'JetBrains Mono', Consolas, monospace" font-size="38.64" fill="#FFFFFF" font-weight="700">32</text><text x="865.0" y="241.6" text-anchor="middle" font-family="Inter, 'PingFang SC', 'Microsoft YaHei', sans-serif" font-size="12" fill="#FFFFFF" font-weight="700">晋级 32 强</text><rect x="1010" y="168" width="170" height="92" rx="6" fill="#FFFFFF" stroke="#262626" stroke-width="1.6"/><text x="1095.0" y="212.0" text-anchor="middle" font-family="'JetBrains Mono', Consolas, monospace" font-size="33.12" fill="#262626" font-weight="700">16</text><text x="1095.0" y="241.6" text-anchor="middle" font-family="Inter, 'PingFang SC', 'Microsoft YaHei', sans-serif" font-size="11.5" fill="#6E6E6E" font-weight="700">止步小组赛</text><line x1="536" y1="214" x2="767.012079387775" y2="200.4110541536603" stroke="#C9A227" stroke-width="1.4"/><polygon points="774.0,200.0 767.8,203.2 767.5,197.5" fill="#C9A227"/><text x="650" y="192" text-anchor="middle" font-family="Inter, 'PingFang SC', 'Microsoft YaHei', sans-serif" font-size="10.5" fill="#6E6E6E" font-weight="700">前二 24</text><line x1="536" y1="264" x2="767.0479457697398" y2="236.81788873297177" stroke="#C9A227" stroke-width="1.4" stroke-dasharray="4 3"/><polygon points="774.0,236.0 768.0,239.6 767.3,233.9" fill="#C9A227"/><text x="650" y="262" text-anchor="middle" font-family="Inter, 'PingFang SC', 'Microsoft YaHei', sans-serif" font-size="10.5" fill="#6E6E6E" font-weight="700">佳三 12 选 8</text><line x1="950" y1="214" x2="978.0" y2="214" stroke="#C4C4C4" stroke-width="1.4"/><line x1="978.0" y1="214" x2="978.0" y2="214" stroke="#C4C4C4" stroke-width="1.4"/><line x1="978.0" y1="214" x2="1006" y2="214" stroke="#C4C4C4" stroke-width="1.4"/><text x="780" y="318" text-anchor="start" font-family="Inter, 'PingFang SC', 'Microsoft YaHei', sans-serif" font-size="12.5" fill="#262626" font-weight="700">48 队去向 · 按小组名次</text><rect x="780" y="330" width="210" height="26" rx="2" fill="#9B9B9B"/><text x="885.0" y="348" text-anchor="middle" font-family="'JetBrains Mono', Consolas, monospace" font-size="12.5" fill="#FFFFFF" font-weight="700">24</text><rect x="990" y="330" width="70" height="26" rx="2" fill="#C8C8C8"/><rect x="1060" y="330" width="140" height="26" rx="2" fill="#C4C4C4"/><text x="1130.0" y="348" text-anchor="middle" font-family="'JetBrains Mono', Consolas, monospace" font-size="12.5" fill="#FFFFFF" font-weight="700">16</text><line x1="1025.0" y1="329" x2="1025.0" y2="311" stroke="#C4C4C4" stroke-width="1"/><text x="1025.0" y="308" text-anchor="middle" font-family="Inter, 'PingFang SC', 'Microsoft YaHei', sans-serif" font-size="9.5" fill="#6E6E6E" font-weight="700">佳三 8</text><text x="780" y="374" text-anchor="start" font-family="Inter, 'PingFang SC', 'Microsoft YaHei', sans-serif" font-size="11.5" fill="#6E6E6E">晋级 32 = 前二 24 + 最佳第三 8；出局 16 = 第四 12 + 第三 4</text><ellipse cx="1025.0" cy="343" rx="38" ry="18" fill="none" stroke="#C9A227" stroke-width="2"/><rect x="780" y="478" width="460" height="96" rx="12" fill="#F6F1E2"/><rect x="780" y="478" width="3" height="96" rx="1.5" fill="#C9A227"/><text x="802" y="508" text-anchor="start" font-family="Inter, 'PingFang SC', 'Microsoft YaHei', sans-serif" font-size="13.5" fill="#262626" font-weight="700">最佳第三怎么选</text><circle cx="809" cy="534" r="3" fill="#9B9B9B"/><text x="822" y="538" text-anchor="start" font-family="Inter, 'PingFang SC', 'Microsoft YaHei', sans-serif" font-size="12.5" fill="#262626">12 个小组第三横向排名，取前 8 晋级</text><circle cx="809" cy="558" r="3" fill="#9B9B9B"/><text x="822" y="562" text-anchor="start" font-family="Inter, 'PingFang SC', 'Microsoft YaHei', sans-serif" font-size="12.5" fill="#262626">第三名的命运，要等 12 个组全部收官才揭晓</text><rect x="40" y="642" width="1200" height="36" rx="6" fill="#171717"/><text x="62" y="665.0" text-anchor="start" font-family="Inter, 'PingFang SC', 'Microsoft YaHei', sans-serif" font-size="12.5" fill="#C9A227" font-weight="700">So-What</text><text x="136" y="665.0" text-anchor="start" font-family="Inter, 'PingFang SC', 'Microsoft YaHei', sans-serif" font-size="13" fill="#FFFFFF">小组赛只淘汰 1/3——2026 的悬念被后移：算分留给末轮，生死留给 7 月</text><line x1="40" y1="690" x2="1240" y2="690" stroke="#E7E7E7" stroke-width="1"/><text x="40" y="709" text-anchor="start" font-family="Inter, 'PingFang SC', 'Microsoft YaHei', sans-serif" font-size="11" fill="#9B9B9B">来源：FIFA.com（48 队新赛制说明） ；配色近似官方黑·白·金＋三国色调（未公开固定 HEX）</text><text x="1240" y="709" text-anchor="end" font-family="'JetBrains Mono', Consolas, monospace" font-size="11" fill="#9B9B9B">5 / 10</text></svg>